<svg width="151" height="234" viewBox="0 0 151 234" fill="none" xmlns="http://www.w3.org/2000/svg">
<rect width="151" height="234" fill="white"/>
<path d="M99.0523 78H51.555C45.726 78 41 82.726 41 88.555V117.581H109.607V88.555C109.607 82.726 104.881 78 99.0523 78Z" fill="#4289C1"/>
<path d="M54 94H56.6387V117.749H54V94Z" fill="#2A6797"/>
<path d="M40.2663 92.477L39.5196 92.3214H38.1712C38.1712 92.1683 38.2319 92.0258 38.2635 91.8754C37.3452 91.3081 36.8228 90.2262 37.055 89.11C37.3505 87.6798 38.7517 86.7615 40.1845 87.0544L45.7021 88.197H50.1247C52.4019 88.197 54.2464 90.0441 54.2464 92.324V96.4483H44.359C44.359 96.4483 40.451 94.683 40.2663 92.477Z" fill="#FCAB40"/>
<path d="M28 90.0635C28 88.9236 28.9236 88 30.0609 88L42.4366 90.0635H52.3239C53.4639 90.0635 54.3848 90.9897 54.3848 92.1244V96.2513H41.1937L30.0609 92.127C30.0609 92.127 28 91.2034 28 90.0635Z" fill="#FFDC5D"/>
<path d="M39 118.11H54.8324V97H41.6387L39 118.11Z" fill="#4289C1"/>
<path d="M94 94H96.6387V117.749H94V94Z" fill="#2A6797"/>
<path d="M110.977 92.477L111.724 92.3214H113.073C113.073 92.1683 113.012 92.0258 112.98 91.8754C113.898 91.3081 114.421 90.2262 114.189 89.11C113.893 87.6798 112.495 86.7615 111.062 87.0544L105.544 88.197H101.122C98.8445 88.197 97 90.0441 97 92.324V96.4483H106.887C106.885 96.4483 110.793 94.683 110.977 92.477Z" fill="#FCAB40"/>
<path d="M123.387 90.0635C123.387 88.9236 122.464 88 121.327 88L108.948 90.0635H99.0609C97.9209 90.0635 97 90.9897 97 92.1244V96.2513H110.194L121.327 92.127C121.327 92.127 123.387 91.2034 123.387 90.0635Z" fill="#FFDC5D"/>
<path d="M112.832 118.11H97V97H110.194L112.832 118.11Z" fill="#4289C1"/>
<path d="M52 41V67.3874C52 80.5046 62.6315 91.1361 75.7487 91.1361C88.8659 91.1361 99.4973 80.5046 99.4973 67.3874V41H52Z" fill="#FFDC5D"/>
<path d="M56.4361 58.5494C56.4361 62.7186 54.3251 66.0989 51.7181 66.0989C49.111 66.0989 47 62.7186 47 58.5494C47 54.3802 49.1136 51 51.7181 51C54.3225 51 56.4361 54.3802 56.4361 58.5494ZM103.622 58.5494C103.622 62.7186 101.511 66.0989 98.904 66.0989C96.297 66.0989 94.186 62.7186 94.186 58.5494C94.186 54.3802 96.297 51 98.904 51C101.511 51 103.622 54.3802 103.622 58.5494Z" fill="#FFDC5D"/>
<path d="M75.7542 25C57.2329 25 49 37.3599 49 47.6615C49 57.9605 52.5438 60.8183 53.1164 57.9605C55.1747 47.6615 61.3493 44.5003 61.3493 44.5003C73.6986 54.8019 71.6404 46.5612 71.6404 46.5612C83.9871 58.921 77.8151 46.5612 77.8151 46.5612C81.9315 50.6829 94.2782 50.6829 94.2782 50.6829C94.2782 50.6829 96.3364 53.8441 98.392 57.9632C100.45 62.0849 102.508 57.9632 102.508 47.6641C102.508 37.3599 92.2173 25 75.7542 25Z" fill="#FFAC33"/>
<path d="M78.5969 74.6387H73.3194C72.5911 74.6387 72 74.0477 72 73.3194C72 72.5911 72.5911 72 73.3194 72H78.5969C79.3251 72 79.9162 72.5911 79.9162 73.3194C79.9162 74.0477 79.3251 74.6387 78.5969 74.6387ZM82.555 83.8743H81.2356C80.5073 83.8743 79.9162 83.2833 79.9162 82.555C79.9162 81.8267 80.5073 81.2356 81.2356 81.2356H82.555C83.2833 81.2356 83.8743 81.8267 83.8743 82.555C83.8743 83.2833 83.2833 83.8743 82.555 83.8743Z" fill="#BF6952"/>
<path d="M64.6387 64.9162C63.1822 64.9162 62 63.7341 62 62.2775V59.6387C62 58.1822 63.1822 57 64.6387 57C66.0953 57 67.2775 58.1822 67.2775 59.6387V62.2775C67.2775 63.7341 66.0953 64.9162 64.6387 64.9162ZM85.7487 64.9162C84.2894 64.9162 83.1099 63.7341 83.1099 62.2775V59.6387C83.1099 58.1822 84.2894 57 85.7487 57C87.2079 57 88.3874 58.1822 88.3874 59.6387V62.2775C88.3874 63.7341 87.2079 64.9162 85.7487 64.9162Z" fill="#662113"/>
<path d="M56.2861 153.211C59.8809 153.211 62.1221 150.688 62.1221 146.663V146.646C62.1221 142.629 59.8721 140.106 56.2861 140.106C52.6914 140.106 50.4326 142.629 50.4326 146.646V146.663C50.4326 150.688 52.6826 153.211 56.2861 153.211ZM56.2861 151.752C53.6846 151.752 52.0498 149.783 52.0498 146.663V146.646C52.0498 143.525 53.6934 141.565 56.2861 141.565C58.8701 141.565 60.5049 143.534 60.5049 146.646V146.663C60.5049 149.757 58.8965 151.752 56.2861 151.752ZM67.6416 153.176C70.1641 153.176 71.8691 151.348 71.8691 148.43V148.412C71.8691 145.494 70.1553 143.684 67.6328 143.684C65.1104 143.684 63.4053 145.503 63.4053 148.412V148.43C63.4053 151.339 65.1016 153.176 67.6416 153.176ZM67.6504 151.822C66.0332 151.822 64.9697 150.583 64.9697 148.43V148.412C64.9697 146.276 66.042 145.037 67.6328 145.037C69.25 145.037 70.3047 146.268 70.3047 148.412V148.43C70.3047 150.574 69.2588 151.822 67.6504 151.822ZM73.416 156.076H74.9453V151.471H74.9805C75.5518 152.525 76.6152 153.176 77.9072 153.176C80.2012 153.176 81.7656 151.321 81.7656 148.438V148.43C81.7656 145.547 80.2188 143.684 77.8809 143.684C76.5713 143.684 75.5518 144.343 74.9805 145.406H74.9453V143.859H73.416V156.076ZM77.582 151.822C76.0439 151.822 74.9365 150.478 74.9365 148.438V148.43C74.9365 146.382 76.0352 145.037 77.582 145.037C79.1992 145.037 80.2012 146.329 80.2012 148.43V148.438C80.2012 150.521 79.1992 151.822 77.582 151.822ZM86.5557 153.176C88.5947 153.176 90.1064 152.051 90.1064 150.451V150.442C90.1064 149.142 89.4385 148.412 87.5928 147.964L86.1426 147.612C85.1318 147.366 84.7188 146.936 84.7188 146.312V146.303C84.7188 145.494 85.4043 144.958 86.5117 144.958C87.6455 144.958 88.3223 145.547 88.4453 146.435L88.4541 146.496H89.9131L89.9043 146.382C89.79 144.853 88.5156 143.684 86.5117 143.684C84.5342 143.684 83.1543 144.8 83.1543 146.373V146.382C83.1543 147.7 83.9893 148.5 85.7119 148.913L87.1621 149.265C88.1992 149.52 88.542 149.889 88.542 150.548V150.557C88.542 151.383 87.8037 151.901 86.5645 151.901C85.3164 151.901 84.6396 151.365 84.4551 150.451L84.4375 150.363H82.9082L82.917 150.442C83.1016 152.077 84.4023 153.176 86.5557 153.176ZM92.6377 153.123C93.2002 153.123 93.6396 152.684 93.6396 152.121C93.6396 151.559 93.2002 151.119 92.6377 151.119C92.0752 151.119 91.6357 151.559 91.6357 152.121C91.6357 152.684 92.0752 153.123 92.6377 153.123ZM96.5049 153.123C97.0674 153.123 97.5068 152.684 97.5068 152.121C97.5068 151.559 97.0674 151.119 96.5049 151.119C95.9424 151.119 95.5029 151.559 95.5029 152.121C95.5029 152.684 95.9424 153.123 96.5049 153.123ZM100.372 153.123C100.935 153.123 101.374 152.684 101.374 152.121C101.374 151.559 100.935 151.119 100.372 151.119C99.8096 151.119 99.3701 151.559 99.3701 152.121C99.3701 152.684 99.8096 153.123 100.372 153.123ZM21.9736 174H26.7637C29.4619 174 31.0615 172.673 31.0615 170.44V170.423C31.0615 168.744 29.9541 167.514 28.126 167.303V167.268C29.4355 167.083 30.4199 165.809 30.4199 164.499V164.481C30.4199 162.583 28.9521 161.317 26.7812 161.317H21.9736V174ZM26.4209 162.715C27.9502 162.715 28.8203 163.4 28.8203 164.648V164.666C28.8203 166.037 27.8008 166.784 25.9287 166.784H23.5557V162.715H26.4209ZM26.377 168.146C28.3984 168.146 29.4355 168.894 29.4355 170.361V170.379C29.4355 171.838 28.4248 172.603 26.5264 172.603H23.5557V168.146H26.377ZM36.4053 174.176C38.9277 174.176 40.6328 172.348 40.6328 169.43V169.412C40.6328 166.494 38.9189 164.684 36.3965 164.684C33.874 164.684 32.1689 166.503 32.1689 169.412V169.43C32.1689 172.339 33.8652 174.176 36.4053 174.176ZM36.4141 172.822C34.7969 172.822 33.7334 171.583 33.7334 169.43V169.412C33.7334 167.276 34.8057 166.037 36.3965 166.037C38.0137 166.037 39.0684 167.268 39.0684 169.412V169.43C39.0684 171.574 38.0225 172.822 36.4141 172.822ZM45.9678 174.176C48.4902 174.176 50.1953 172.348 50.1953 169.43V169.412C50.1953 166.494 48.4814 164.684 45.959 164.684C43.4365 164.684 41.7314 166.503 41.7314 169.412V169.43C41.7314 172.339 43.4277 174.176 45.9678 174.176ZM45.9766 172.822C44.3594 172.822 43.2959 171.583 43.2959 169.43V169.412C43.2959 167.276 44.3682 166.037 45.959 166.037C47.5762 166.037 48.6309 167.268 48.6309 169.412V169.43C48.6309 171.574 47.585 172.822 45.9766 172.822ZM51.8652 174H53.3945V170.555L54.2471 169.737L57.6396 174H59.415L55.3281 168.806L59.292 164.859H57.4375L53.4297 168.894H53.3945V161.317H51.8652V174ZM60.2324 165.615H61.3223L62.6055 161.317H61.0059L60.2324 165.615ZM66.2705 174.176C68.3096 174.176 69.8213 173.051 69.8213 171.451V171.442C69.8213 170.142 69.1533 169.412 67.3076 168.964L65.8574 168.612C64.8467 168.366 64.4336 167.936 64.4336 167.312V167.303C64.4336 166.494 65.1191 165.958 66.2266 165.958C67.3604 165.958 68.0371 166.547 68.1602 167.435L68.1689 167.496H69.6279L69.6191 167.382C69.5049 165.853 68.2305 164.684 66.2266 164.684C64.249 164.684 62.8691 165.8 62.8691 167.373V167.382C62.8691 168.7 63.7041 169.5 65.4268 169.913L66.877 170.265C67.9141 170.52 68.2568 170.889 68.2568 171.548V171.557C68.2568 172.383 67.5186 172.901 66.2793 172.901C65.0312 172.901 64.3545 172.365 64.1699 171.451L64.1523 171.363H62.623L62.6318 171.442C62.8164 173.077 64.1172 174.176 66.2705 174.176ZM78.8916 174.176C80.957 174.176 82.46 172.831 82.7061 171.091L82.7148 171.029H81.2119L81.1943 171.1C80.9395 172.119 80.1396 172.822 78.8916 172.822C77.3096 172.822 76.2197 171.565 76.2197 169.438V169.43C76.2197 167.355 77.2832 166.037 78.874 166.037C80.2188 166.037 80.957 166.846 81.1855 167.76L81.2031 167.83H82.6973L82.6885 167.76C82.4951 166.195 81.1504 164.684 78.874 164.684C76.334 164.684 74.6553 166.529 74.6553 169.412V169.421C74.6553 172.33 76.2988 174.176 78.8916 174.176ZM87.9092 174.176C90.4316 174.176 92.1367 172.348 92.1367 169.43V169.412C92.1367 166.494 90.4229 164.684 87.9004 164.684C85.3779 164.684 83.6729 166.503 83.6729 169.412V169.43C83.6729 172.339 85.3691 174.176 87.9092 174.176ZM87.918 172.822C86.3008 172.822 85.2373 171.583 85.2373 169.43V169.412C85.2373 167.276 86.3096 166.037 87.9004 166.037C89.5176 166.037 90.5723 167.268 90.5723 169.412V169.43C90.5723 171.574 89.5264 172.822 87.918 172.822ZM95.9072 174H97.4717L100.829 164.859H99.2383L96.707 172.374H96.6719L94.1494 164.859H92.541L95.9072 174ZM105.443 174.176C107.438 174.176 108.933 172.98 109.231 171.469L109.249 171.381H107.746L107.72 171.46C107.456 172.242 106.639 172.822 105.479 172.822C103.853 172.822 102.815 171.724 102.78 169.843H109.363V169.28C109.363 166.538 107.843 164.684 105.347 164.684C102.851 164.684 101.233 166.626 101.233 169.456V169.465C101.233 172.339 102.815 174.176 105.443 174.176ZM105.338 166.037C106.674 166.037 107.658 166.872 107.808 168.647H102.807C102.974 166.942 104.011 166.037 105.338 166.037ZM110.91 174H112.439V168.357C112.439 166.969 113.213 166.143 114.399 166.143C114.769 166.143 115.094 166.187 115.217 166.23V164.745C115.094 164.728 114.865 164.684 114.602 164.684C113.573 164.684 112.782 165.352 112.475 166.406H112.439V164.859H110.91V174ZM121.018 163.312C121.554 163.312 121.976 162.882 121.976 162.354C121.976 161.818 121.554 161.396 121.018 161.396C120.49 161.396 120.06 161.818 120.06 162.354C120.06 162.882 120.49 163.312 121.018 163.312ZM120.253 174H121.782V164.859H120.253V174ZM127.108 174.176C129.147 174.176 130.659 173.051 130.659 171.451V171.442C130.659 170.142 129.991 169.412 128.146 168.964L126.695 168.612C125.685 168.366 125.271 167.936 125.271 167.312V167.303C125.271 166.494 125.957 165.958 127.064 165.958C128.198 165.958 128.875 166.547 128.998 167.435L129.007 167.496H130.466L130.457 167.382C130.343 165.853 129.068 164.684 127.064 164.684C125.087 164.684 123.707 165.8 123.707 167.373V167.382C123.707 168.7 124.542 169.5 126.265 169.913L127.715 170.265C128.752 170.52 129.095 170.889 129.095 171.548V171.557C129.095 172.383 128.356 172.901 127.117 172.901C125.869 172.901 125.192 172.365 125.008 171.451L124.99 171.363H123.461L123.47 171.442C123.654 173.077 124.955 174.176 127.108 174.176ZM47.9805 195H49.5098V189.27C49.5098 187.995 50.3887 187.037 51.6016 187.037C52.7354 187.037 53.4736 187.767 53.4736 188.874V195H55.0029V189.19C55.0029 187.942 55.8555 187.037 57.0684 187.037C58.2725 187.037 58.9668 187.784 58.9668 189.041V195H60.4961V188.689C60.4961 186.87 59.3271 185.684 57.5166 185.684C56.2334 185.684 55.1611 186.343 54.6514 187.441H54.6162C54.2207 186.325 53.2979 185.684 52.0498 185.684C50.8721 185.684 49.958 186.29 49.5449 187.195H49.5098V185.859H47.9805V195ZM63.3086 184.312C63.8447 184.312 64.2666 183.882 64.2666 183.354C64.2666 182.818 63.8447 182.396 63.3086 182.396C62.7812 182.396 62.3506 182.818 62.3506 183.354C62.3506 183.882 62.7812 184.312 63.3086 184.312ZM62.5439 195H64.0732V185.859H62.5439V195ZM69.3994 195.176C71.4385 195.176 72.9502 194.051 72.9502 192.451V192.442C72.9502 191.142 72.2822 190.412 70.4365 189.964L68.9863 189.612C67.9756 189.366 67.5625 188.936 67.5625 188.312V188.303C67.5625 187.494 68.248 186.958 69.3555 186.958C70.4893 186.958 71.166 187.547 71.2891 188.435L71.2979 188.496H72.7568L72.748 188.382C72.6338 186.853 71.3594 185.684 69.3555 185.684C67.3779 185.684 65.998 186.8 65.998 188.373V188.382C65.998 189.7 66.833 190.5 68.5557 190.913L70.0059 191.265C71.043 191.52 71.3857 191.889 71.3857 192.548V192.557C71.3857 193.383 70.6475 193.901 69.4082 193.901C68.1602 193.901 67.4834 193.365 67.2988 192.451L67.2812 192.363H65.752L65.7607 192.442C65.9453 194.077 67.2461 195.176 69.3994 195.176ZM77.7842 195.176C79.8232 195.176 81.335 194.051 81.335 192.451V192.442C81.335 191.142 80.667 190.412 78.8213 189.964L77.3711 189.612C76.3604 189.366 75.9473 188.936 75.9473 188.312V188.303C75.9473 187.494 76.6328 186.958 77.7402 186.958C78.874 186.958 79.5508 187.547 79.6738 188.435L79.6826 188.496H81.1416L81.1328 188.382C81.0186 186.853 79.7441 185.684 77.7402 185.684C75.7627 185.684 74.3828 186.8 74.3828 188.373V188.382C74.3828 189.7 75.2178 190.5 76.9404 190.913L78.3906 191.265C79.4277 191.52 79.7705 191.889 79.7705 192.548V192.557C79.7705 193.383 79.0322 193.901 77.793 193.901C76.5449 193.901 75.8682 193.365 75.6836 192.451L75.666 192.363H74.1367L74.1455 192.442C74.3301 194.077 75.6309 195.176 77.7842 195.176ZM83.7871 184.312C84.3232 184.312 84.7451 183.882 84.7451 183.354C84.7451 182.818 84.3232 182.396 83.7871 182.396C83.2598 182.396 82.8291 182.818 82.8291 183.354C82.8291 183.882 83.2598 184.312 83.7871 184.312ZM83.0225 195H84.5518V185.859H83.0225V195ZM86.6348 195H88.1641V189.621C88.1641 188.065 89.1045 187.037 90.5459 187.037C91.9521 187.037 92.6465 187.854 92.6465 189.34V195H94.1758V189.067C94.1758 186.984 93.0156 185.684 91.0117 185.684C89.623 185.684 88.6914 186.308 88.1992 187.16H88.1641V185.859H86.6348V195ZM99.9941 198.252C102.473 198.252 104.028 196.863 104.028 194.745V185.859H102.499V187.406H102.464C101.901 186.387 100.882 185.684 99.5898 185.684C97.2695 185.684 95.6787 187.529 95.6787 190.368V190.377C95.6787 193.233 97.252 195.088 99.5547 195.088C100.864 195.088 101.919 194.438 102.464 193.427H102.499V194.596C102.499 196.011 101.585 196.898 99.9766 196.898C98.7285 196.898 97.8584 196.494 97.5684 195.835L97.5332 195.756H95.9951L96.0127 195.835C96.3115 197.188 97.7354 198.252 99.9941 198.252ZM99.8887 193.734C98.2627 193.734 97.2432 192.451 97.2432 190.377V190.368C97.2432 188.338 98.2627 187.037 99.8887 187.037C101.436 187.037 102.499 188.355 102.499 190.368V190.377C102.499 192.407 101.444 193.734 99.8887 193.734Z" fill="black"/>
</svg>
