<svg width="106" height="153" viewBox="0 0 106 153" fill="none" xmlns="http://www.w3.org/2000/svg">
<rect width="106" height="153" fill="white"/>
<path d="M69.5342 49.6538H36.1917C32.0998 49.6538 28.7822 52.7439 28.7822 56.5552V75.5338H76.9436V56.5552C76.9436 52.7439 73.626 49.6538 69.5342 49.6538Z" fill="#4289C1"/>
<path d="M37.9082 60.1154H39.7606V75.6434H37.9082V60.1154Z" fill="#2A6797"/>
<path d="M28.2675 59.1196L27.7433 59.0178H26.7967C26.7967 58.9177 26.8394 58.8246 26.8616 58.7262C26.217 58.3553 25.8502 57.6479 26.0132 56.9181C26.2207 55.983 27.2043 55.3825 28.2101 55.5741L32.0834 56.3211H35.1879C36.7865 56.3211 38.0813 57.5289 38.0813 59.0195V61.7162H31.1405C31.1405 61.7162 28.3972 60.562 28.2675 59.1196Z" fill="#FCAB40"/>
<path d="M19.6562 57.5415C19.6562 56.7962 20.3046 56.1923 21.1029 56.1923L29.7905 57.5415H36.7313C37.5315 57.5415 38.178 58.1471 38.178 58.889V61.5874H28.9181L21.1029 58.8907C21.1029 58.8907 19.6562 58.2869 19.6562 57.5415Z" fill="#FFDC5D"/>
<path d="M27.3779 75.8796H38.4921V62.0769H29.2303L27.3779 75.8796Z" fill="#4289C1"/>
<path d="M65.9873 60.1154H67.8397V75.6434H65.9873V60.1154Z" fill="#2A6797"/>
<path d="M77.9057 59.1196L78.4299 59.0178H79.3765C79.3765 58.9177 79.3339 58.8246 79.3117 58.7262C79.9563 58.3553 80.323 57.6479 80.16 56.9181C79.9526 55.983 78.9708 55.3825 77.965 55.5741L74.0917 56.3211H70.9871C69.3886 56.3211 68.0938 57.5289 68.0938 59.0195V61.7162H75.0345C75.0327 61.7162 77.776 60.562 77.9057 59.1196V59.1196Z" fill="#FCAB40"/>
<path d="M86.6174 57.5415C86.6174 56.7962 85.969 56.1923 85.1707 56.1923L76.4812 57.5415H69.5404C68.7402 57.5415 68.0938 58.1471 68.0938 58.889V61.5874H77.3556L85.1707 58.8907C85.1707 58.8907 86.6174 58.2869 86.6174 57.5415Z" fill="#FFDC5D"/>
<path d="M79.2079 75.8796H68.0938V62.0769H77.3556L79.2079 75.8796Z" fill="#4289C1"/>
<path d="M36.5039 25.4615V42.7148C36.5039 51.2915 43.9671 58.2428 53.1752 58.2428C62.3832 58.2428 69.8464 51.2915 69.8464 42.7148V25.4615H36.5039Z" fill="#FFDC5D"/>
<path d="M39.6182 36.9362C39.6182 39.6622 38.1363 41.8723 36.3062 41.8723C34.476 41.8723 32.9941 39.6622 32.9941 36.9362C32.9941 34.2101 34.4779 32 36.3062 32C38.1344 32 39.6182 34.2101 39.6182 36.9362ZM72.7421 36.9362C72.7421 39.6622 71.2602 41.8723 69.4301 41.8723C67.6 41.8723 66.1181 39.6622 66.1181 36.9362C66.1181 34.2101 67.6 32 69.4301 32C71.2602 32 72.7421 34.2101 72.7421 36.9362Z" fill="#FFDC5D"/>
<path d="M53.1795 15C40.1778 15 34.3984 23.0815 34.3984 29.8171C34.3984 36.5511 36.8862 38.4196 37.2881 36.5511C38.733 29.8171 43.0675 27.7502 43.0675 27.7502C51.7365 34.4859 50.2917 29.0977 50.2917 29.0977C58.9589 37.1791 54.6262 29.0977 54.6262 29.0977C57.5159 31.7926 66.1831 31.7926 66.1831 31.7926C66.1831 31.7926 67.628 33.8596 69.0709 36.5528C70.5158 39.2478 71.9606 36.5528 71.9606 29.8189C71.9606 23.0815 64.7364 15 53.1795 15V15Z" fill="#FFAC33"/>
<path d="M55.1748 47.4561H51.4701C50.9589 47.4561 50.5439 47.0696 50.5439 46.5934C50.5439 46.1172 50.9589 45.7308 51.4701 45.7308H55.1748C55.6861 45.7308 56.101 46.1172 56.101 46.5934C56.101 47.0696 55.6861 47.4561 55.1748 47.4561ZM57.9534 53.4948H57.0272C56.516 53.4948 56.101 53.1083 56.101 52.6321C56.101 52.1559 56.516 51.7694 57.0272 51.7694H57.9534C58.4646 51.7694 58.8796 52.1559 58.8796 52.6321C58.8796 53.1083 58.4646 53.4948 57.9534 53.4948Z" fill="#BF6952"/>
<path d="M45.3758 41.0991C44.3533 41.0991 43.5234 40.3261 43.5234 39.3737V37.6484C43.5234 36.696 44.3533 35.9231 45.3758 35.9231C46.3983 35.9231 47.2282 36.696 47.2282 37.6484V39.3737C47.2282 40.3261 46.3983 41.0991 45.3758 41.0991ZM60.1947 41.0991C59.1703 41.0991 58.3423 40.3261 58.3423 39.3737V37.6484C58.3423 36.696 59.1703 35.9231 60.1947 35.9231C61.219 35.9231 62.0471 36.696 62.0471 37.6484V39.3737C62.0471 40.3261 61.219 41.0991 60.1947 41.0991Z" fill="#662113"/>
<path d="M39.5126 98.1481C42.036 98.1481 43.6093 96.3773 43.6093 93.5516V93.5392C43.6093 90.7196 42.0299 88.9489 39.5126 88.9489C36.9891 88.9489 35.4035 90.7196 35.4035 93.5392V93.5516C35.4035 96.3773 36.983 98.1481 39.5126 98.1481ZM39.5126 97.1239C37.6863 97.1239 36.5388 95.7419 36.5388 93.5516V93.5392C36.5388 91.3489 37.6925 89.9731 39.5126 89.9731C41.3265 89.9731 42.4741 91.3551 42.4741 93.5392V93.5516C42.4741 95.7233 41.345 97.1239 39.5126 97.1239ZM47.484 98.1234C49.2547 98.1234 50.4517 96.8401 50.4517 94.7917V94.7794C50.4517 92.731 49.2486 91.46 47.4778 91.46C45.7071 91.46 44.5101 92.7372 44.5101 94.7794V94.7917C44.5101 96.8339 45.7009 98.1234 47.484 98.1234ZM47.4902 97.1732C46.3549 97.1732 45.6084 96.3033 45.6084 94.7917V94.7794C45.6084 93.2801 46.3611 92.4102 47.4778 92.4102C48.6131 92.4102 49.3534 93.2739 49.3534 94.7794V94.7917C49.3534 96.2971 48.6192 97.1732 47.4902 97.1732ZM51.5376 100.159H52.6111V96.9265H52.6358C53.0368 97.6668 53.7834 98.1234 54.6903 98.1234C56.3006 98.1234 57.3989 96.8216 57.3989 94.7979V94.7917C57.3989 92.768 56.313 91.46 54.6718 91.46C53.7525 91.46 53.0368 91.9227 52.6358 92.6693H52.6111V91.5834H51.5376V100.159ZM54.462 97.1732C53.3823 97.1732 52.6049 96.2293 52.6049 94.7979V94.7917C52.6049 93.3541 53.3762 92.4102 54.462 92.4102C55.5973 92.4102 56.3006 93.3171 56.3006 94.7917V94.7979C56.3006 96.2601 55.5973 97.1732 54.462 97.1732ZM60.7614 98.1234C62.1928 98.1234 63.254 97.3337 63.254 96.2108V96.2046C63.254 95.2915 62.7851 94.7794 61.4894 94.4647L60.4714 94.2179C59.7619 94.0452 59.4719 93.7428 59.4719 93.3048V93.2986C59.4719 92.731 59.9532 92.3546 60.7306 92.3546C61.5265 92.3546 62.0015 92.768 62.0879 93.3912L62.0941 93.4343H63.1183L63.1121 93.3541C63.0319 92.2806 62.1373 91.46 60.7306 91.46C59.3424 91.46 58.3737 92.2436 58.3737 93.348V93.3541C58.3737 94.2796 58.9598 94.8411 60.1691 95.131L61.1871 95.3778C61.9152 95.5568 62.1558 95.8159 62.1558 96.2786V96.2848C62.1558 96.8648 61.6375 97.2288 60.7676 97.2288C59.8915 97.2288 59.4164 96.8524 59.2868 96.2108L59.2745 96.1491H58.2009L58.2071 96.2046C58.3367 97.3522 59.2498 98.1234 60.7614 98.1234ZM65.0309 98.0864C65.4258 98.0864 65.7343 97.7779 65.7343 97.383C65.7343 96.9882 65.4258 96.6797 65.0309 96.6797C64.636 96.6797 64.3276 96.9882 64.3276 97.383C64.3276 97.7779 64.636 98.0864 65.0309 98.0864ZM67.7456 98.0864C68.1405 98.0864 68.449 97.7779 68.449 97.383C68.449 96.9882 68.1405 96.6797 67.7456 96.6797C67.3508 96.6797 67.0423 96.9882 67.0423 97.383C67.0423 97.7779 67.3508 98.0864 67.7456 98.0864ZM70.4603 98.0864C70.8552 98.0864 71.1637 97.7779 71.1637 97.383C71.1637 96.9882 70.8552 96.6797 70.4603 96.6797C70.0655 96.6797 69.757 96.9882 69.757 97.383C69.757 97.7779 70.0655 98.0864 70.4603 98.0864ZM15.4257 113H18.7882C20.6824 113 21.8053 112.068 21.8053 110.501V110.489C21.8053 109.31 21.0279 108.447 19.7445 108.299V108.274C20.6638 108.144 21.3549 107.25 21.3549 106.33V106.318C21.3549 104.985 20.3245 104.097 18.8006 104.097H15.4257V113ZM18.5476 105.078C19.6211 105.078 20.232 105.559 20.232 106.435V106.448C20.232 107.41 19.5163 107.935 18.2021 107.935H16.5362V105.078H18.5476ZM18.5168 108.891C19.9358 108.891 20.6638 109.415 20.6638 110.446V110.458C20.6638 111.482 19.9543 112.019 18.6216 112.019H16.5362V108.891H18.5168ZM25.5565 113.123C27.3272 113.123 28.5242 111.84 28.5242 109.792V109.779C28.5242 107.731 27.3211 106.46 25.5503 106.46C23.7796 106.46 22.5827 107.737 22.5827 109.779V109.792C22.5827 111.834 23.7734 113.123 25.5565 113.123ZM25.5627 112.173C24.4274 112.173 23.6809 111.303 23.6809 109.792V109.779C23.6809 108.28 24.4336 107.41 25.5503 107.41C26.6856 107.41 27.4259 108.274 27.4259 109.779V109.792C27.4259 111.297 26.6917 112.173 25.5627 112.173ZM32.2692 113.123C34.04 113.123 35.2369 111.84 35.2369 109.792V109.779C35.2369 107.731 34.0338 106.46 32.2631 106.46C30.4923 106.46 29.2954 107.737 29.2954 109.779V109.792C29.2954 111.834 30.4862 113.123 32.2692 113.123ZM32.2754 112.173C31.1402 112.173 30.3936 111.303 30.3936 109.792V109.779C30.3936 108.28 31.1463 107.41 32.2631 107.41C33.3983 107.41 34.1387 108.274 34.1387 109.779V109.792C34.1387 111.297 33.4045 112.173 32.2754 112.173ZM36.4092 113H37.4827V110.581L38.0812 110.008L40.4627 113H41.709L38.8401 109.354L41.6227 106.583H40.3208L37.5074 109.415H37.4827V104.097H36.4092V113ZM42.2828 107.114H43.0479L43.9487 104.097H42.8258L42.2828 107.114ZM46.5215 113.123C47.9529 113.123 49.0141 112.334 49.0141 111.211V111.205C49.0141 110.291 48.5452 109.779 47.2495 109.465L46.2315 109.218C45.522 109.045 45.232 108.743 45.232 108.305V108.299C45.232 107.731 45.7133 107.355 46.4906 107.355C47.2866 107.355 47.7616 107.768 47.848 108.391L47.8542 108.434H48.8784L48.8722 108.354C48.792 107.281 47.8974 106.46 46.4906 106.46C45.1024 106.46 44.1338 107.244 44.1338 108.348V108.354C44.1338 109.28 44.7199 109.841 45.9292 110.131L46.9472 110.378C47.6752 110.557 47.9159 110.816 47.9159 111.279V111.285C47.9159 111.865 47.3976 112.229 46.5277 112.229C45.6516 112.229 45.1765 111.852 45.0469 111.211L45.0346 111.149H43.961L43.9672 111.205C44.0968 112.352 45.0099 113.123 46.5215 113.123ZM55.3813 113.123C56.8312 113.123 57.8863 112.179 58.059 110.958L58.0652 110.915H57.0102L56.9978 110.964C56.8189 111.68 56.2574 112.173 55.3813 112.173C54.2708 112.173 53.5057 111.291 53.5057 109.798V109.792C53.5057 108.336 54.2523 107.41 55.369 107.41C56.313 107.41 56.8312 107.978 56.9917 108.619L57.004 108.669H58.0529L58.0467 108.619C57.911 107.521 56.967 106.46 55.369 106.46C53.5859 106.46 52.4075 107.756 52.4075 109.779V109.786C52.4075 111.828 53.5612 113.123 55.3813 113.123ZM61.7116 113.123C63.4823 113.123 64.6792 111.84 64.6792 109.792V109.779C64.6792 107.731 63.4761 106.46 61.7054 106.46C59.9347 106.46 58.7377 107.737 58.7377 109.779V109.792C58.7377 111.834 59.9285 113.123 61.7116 113.123ZM61.7177 112.173C60.5825 112.173 59.8359 111.303 59.8359 109.792V109.779C59.8359 108.28 60.5887 107.41 61.7054 107.41C62.8406 107.41 63.581 108.274 63.581 109.779V109.792C63.581 111.297 62.8468 112.173 61.7177 112.173ZM67.3261 113H68.4243L70.7812 106.583H69.6644L67.8875 111.859H67.8629L66.0921 106.583H64.963L67.3261 113ZM74.0203 113.123C75.4209 113.123 76.4697 112.284 76.6795 111.223L76.6918 111.161H75.6368L75.6183 111.217C75.4332 111.766 74.8594 112.173 74.045 112.173C72.9036 112.173 72.1755 111.402 72.1509 110.082H76.772V109.687C76.772 107.762 75.7047 106.46 73.9524 106.46C72.2002 106.46 71.065 107.824 71.065 109.81V109.816C71.065 111.834 72.1755 113.123 74.0203 113.123ZM73.9463 107.41C74.8841 107.41 75.5751 107.996 75.68 109.243H72.1694C72.2866 108.046 73.0146 107.41 73.9463 107.41ZM77.8579 113H78.9315V109.039C78.9315 108.064 79.4744 107.484 80.3074 107.484C80.5665 107.484 80.7948 107.515 80.8811 107.546V106.503C80.7948 106.491 80.6344 106.46 80.4493 106.46C79.7274 106.46 79.1721 106.929 78.9562 107.669H78.9315V106.583H77.8579V113ZM84.9532 105.498C85.3296 105.498 85.6257 105.195 85.6257 104.825C85.6257 104.449 85.3296 104.152 84.9532 104.152C84.583 104.152 84.2807 104.449 84.2807 104.825C84.2807 105.195 84.583 105.498 84.9532 105.498ZM84.4164 113H85.49V106.583H84.4164V113ZM89.2289 113.123C90.6603 113.123 91.7215 112.334 91.7215 111.211V111.205C91.7215 110.291 91.2526 109.779 89.9569 109.465L88.9389 109.218C88.2294 109.045 87.9394 108.743 87.9394 108.305V108.299C87.9394 107.731 88.4206 107.355 89.198 107.355C89.9939 107.355 90.469 107.768 90.5554 108.391L90.5616 108.434H91.5858L91.5796 108.354C91.4994 107.281 90.6048 106.46 89.198 106.46C87.8098 106.46 86.8412 107.244 86.8412 108.348V108.354C86.8412 109.28 87.4273 109.841 88.6366 110.131L89.6546 110.378C90.3826 110.557 90.6233 110.816 90.6233 111.279V111.285C90.6233 111.865 90.105 112.229 89.2351 112.229C88.3589 112.229 87.8839 111.852 87.7543 111.211L87.742 111.149H86.6684L86.6746 111.205C86.8042 112.352 87.7173 113.123 89.2289 113.123ZM33.6821 128H34.7557V123.977C34.7557 123.083 35.3727 122.41 36.2241 122.41C37.02 122.41 37.5383 122.922 37.5383 123.7V128H38.6118V123.922C38.6118 123.046 39.2103 122.41 40.0617 122.41C40.907 122.41 41.3944 122.935 41.3944 123.817V128H42.4679V123.57C42.4679 122.293 41.6474 121.46 40.3764 121.46C39.4756 121.46 38.7229 121.923 38.365 122.694H38.3403C38.0627 121.91 37.4149 121.46 36.5388 121.46C35.712 121.46 35.0703 121.886 34.7804 122.521H34.7557V121.583H33.6821V128ZM44.4423 120.498C44.8186 120.498 45.1148 120.195 45.1148 119.825C45.1148 119.449 44.8186 119.152 44.4423 119.152C44.0721 119.152 43.7698 119.449 43.7698 119.825C43.7698 120.195 44.0721 120.498 44.4423 120.498ZM43.9055 128H44.979V121.583H43.9055V128ZM48.7179 128.123C50.1493 128.123 51.2105 127.334 51.2105 126.211V126.205C51.2105 125.291 50.7416 124.779 49.446 124.465L48.428 124.218C47.7184 124.045 47.4285 123.743 47.4285 123.305V123.299C47.4285 122.731 47.9097 122.355 48.6871 122.355C49.483 122.355 49.9581 122.768 50.0445 123.391L50.0506 123.434H51.0748L51.0686 123.354C50.9884 122.281 50.0938 121.46 48.6871 121.46C47.2989 121.46 46.3302 122.244 46.3302 123.348V123.354C46.3302 124.28 46.9164 124.841 48.1256 125.131L49.1437 125.378C49.8717 125.557 50.1123 125.816 50.1123 126.279V126.285C50.1123 126.865 49.5941 127.229 48.7241 127.229C47.848 127.229 47.3729 126.852 47.2434 126.211L47.231 126.149H46.1575L46.1636 126.205C46.2932 127.352 47.2063 128.123 48.7179 128.123ZM54.6039 128.123C56.0353 128.123 57.0965 127.334 57.0965 126.211V126.205C57.0965 125.291 56.6276 124.779 55.332 124.465L54.314 124.218C53.6044 124.045 53.3145 123.743 53.3145 123.305V123.299C53.3145 122.731 53.7957 122.355 54.5731 122.355C55.369 122.355 55.8441 122.768 55.9305 123.391L55.9366 123.434H56.9608L56.9546 123.354C56.8744 122.281 55.9798 121.46 54.5731 121.46C53.1849 121.46 52.2162 122.244 52.2162 123.348V123.354C52.2162 124.28 52.8024 124.841 54.0116 125.131L55.0297 125.378C55.7577 125.557 55.9983 125.816 55.9983 126.279V126.285C55.9983 126.865 55.4801 127.229 54.6101 127.229C53.734 127.229 53.2589 126.852 53.1294 126.211L53.117 126.149H52.0435L52.0496 126.205C52.1792 127.352 53.0923 128.123 54.6039 128.123ZM58.8179 120.498C59.1943 120.498 59.4904 120.195 59.4904 119.825C59.4904 119.449 59.1943 119.152 58.8179 119.152C58.4477 119.152 58.1454 119.449 58.1454 119.825C58.1454 120.195 58.4477 120.498 58.8179 120.498ZM58.2811 128H59.3547V121.583H58.2811V128ZM60.8169 128H61.8905V124.224C61.8905 123.132 62.5507 122.41 63.5625 122.41C64.5497 122.41 65.0371 122.984 65.0371 124.027V128H66.1106V123.835C66.1106 122.373 65.2962 121.46 63.8895 121.46C62.9147 121.46 62.2607 121.898 61.9152 122.497H61.8905V121.583H60.8169V128ZM70.195 130.283C71.9349 130.283 73.027 129.308 73.027 127.821V121.583H71.9534V122.669H71.9288C71.5339 121.954 70.8182 121.46 69.9112 121.46C68.2824 121.46 67.1657 122.756 67.1657 124.749V124.755C67.1657 126.76 68.2701 128.062 69.8866 128.062C70.8059 128.062 71.5462 127.605 71.9288 126.896H71.9534V127.716C71.9534 128.71 71.3118 129.333 70.1827 129.333C69.3066 129.333 68.6958 129.049 68.4922 128.586L68.4675 128.531H67.3878L67.4001 128.586C67.6099 129.536 68.6094 130.283 70.195 130.283ZM70.121 127.112C68.9796 127.112 68.2639 126.211 68.2639 124.755V124.749C68.2639 123.323 68.9796 122.41 70.121 122.41C71.2069 122.41 71.9534 123.336 71.9534 124.749V124.755C71.9534 126.18 71.2131 127.112 70.121 127.112Z" fill="black"/>
</svg>
